<?xml version="1.0" encoding="utf-8"?>
<svg version="1.1" xmlns:xlink="http://www.w3.org/1999/xlink" width="41px" height="41px" xmlns="http://www.w3.org/2000/svg">
  <g transform="matrix(1 0 0 1 -24 -244 )">
    <path d="M 44.5 244  C 55.98 244  65 253.02  65 264.5  C 65 275.98  55.98 285  44.5 285  C 33.02 285  24 275.98  24 264.5  C 24 253.02  33.02 244  44.5 244  Z " fill-rule="nonzero" fill="#ffffff" stroke="none" />
    <path d="M 44.5 244.5  C 55.7 244.5  64.5 253.3  64.5 264.5  C 64.5 275.7  55.7 284.5  44.5 284.5  C 33.3 284.5  24.5 275.7  24.5 264.5  C 24.5 253.3  33.3 244.5  44.5 244.5  Z " stroke-width="1" stroke="#797979" fill="none" />
  </g>
</svg>