<?xml version="1.0" encoding="utf-8"?>
<svg version="1.1" xmlns:xlink="http://www.w3.org/1999/xlink" width="377px" height="66px" xmlns="http://www.w3.org/2000/svg">
  <g>
    <path d="M 0 0  L 377 0  L 377 66  L 0 66  L 0 0  " fill-rule="nonzero" fill="#cccccc" stroke="none" />
    <path d="M 5 5  L 372 5  L 372 61  L 5 61  L 5 5  " fill-rule="nonzero" fill="#ffffff" stroke="none" />
    <path d="M 200.99 19.8  C 198.218 19.8  196.04 17.622  196.04 14.85  C 196.04 12.078  198.218 9.9  200.99 9.9  C 203.762 9.9  205.94 12.078  205.94 14.85  C 205.94 17.622  203.762 19.8  200.99 19.8  " fill-rule="nonzero" fill="#cccccc" stroke="none" />
    <path d="M 7 60  L 7 30.85  L 98 17.6  L 225.4 54.4328912466843  L 298.2 25.55  L 371 54.4328912466843  L 371 60  L 7 60  " fill-rule="nonzero" fill="#169bd5" stroke="none" />
  </g>
</svg>